<?xml version="1.0" encoding="UTF-8" standalone="no"?>
<!-- Created with Inkscape (http://www.inkscape.org/) -->

<svg
   xmlns:dc="http://purl.org/dc/elements/1.1/"
   xmlns:cc="http://creativecommons.org/ns#"
   xmlns:rdf="http://www.w3.org/1999/02/22-rdf-syntax-ns#"
   xmlns:svg="http://www.w3.org/2000/svg"
   xmlns="http://www.w3.org/2000/svg"
   xmlns:xlink="http://www.w3.org/1999/xlink"
   xmlns:sodipodi="http://sodipodi.sourceforge.net/DTD/sodipodi-0.dtd"
   xmlns:inkscape="http://www.inkscape.org/namespaces/inkscape"
   width="256"
   height="256"
   viewBox="0 0 67.733332 67.733335"
   version="1.1"
   id="svg3519"
   inkscape:version="0.92.3 (2405546, 2018-03-11)"
   sodipodi:docname="zero-server-wizard.svg">
  <defs
     id="defs3513">
    <linearGradient
       inkscape:collect="always"
       id="linearGradient4344">
      <stop
         style="stop-color:#000206;stop-opacity:1"
         offset="0"
         id="stop4340" />
      <stop
         style="stop-color:#07237d;stop-opacity:1"
         offset="1"
         id="stop4342" />
    </linearGradient>
    <linearGradient
       id="linearGradient4338"
       inkscape:collect="always">
      <stop
         id="stop4334"
         offset="0"
         style="stop-color:#1047b1;stop-opacity:1" />
      <stop
         id="stop4336"
         offset="1"
         style="stop-color:#17b9fa;stop-opacity:1" />
    </linearGradient>
    <linearGradient
       inkscape:collect="always"
       id="linearGradient4328">
      <stop
         style="stop-color:#1047b1;stop-opacity:1"
         offset="0"
         id="stop4324" />
      <stop
         style="stop-color:#17b9fa;stop-opacity:1"
         offset="1"
         id="stop4326" />
    </linearGradient>
    <linearGradient
       id="XMLID_1543_-2"
       gradientUnits="userSpaceOnUse"
       x1="203.6655"
       y1="126.3662"
       x2="203.6655"
       y2="68.789101"
       gradientTransform="matrix(0.74931131,0,0,0.74931131,15.982696,954.64341)">
      <stop
         offset="0"
         style="stop-color:#000000"
         id="stop37853" />
      <stop
         offset="1"
         style="stop-color:#000000;stop-opacity:0.5882"
         id="stop37855" />
    </linearGradient>
    <linearGradient
       id="XMLID_1544_-8"
       gradientUnits="userSpaceOnUse"
       x1="187.21001"
       y1="232.748"
       x2="187.21001"
       y2="101.376"
       gradientTransform="matrix(0.74931131,0,0,0.74931131,15.982696,954.64341)">
      <stop
         offset="0"
         style="stop-color:#000000"
         id="stop37859" />
      <stop
         offset="1"
         style="stop-color:#000000;stop-opacity:0.5882"
         id="stop37861" />
    </linearGradient>
    <linearGradient
       inkscape:collect="always"
       xlink:href="#linearGradient2424-2"
       id="linearGradient6286"
       gradientUnits="userSpaceOnUse"
       gradientTransform="matrix(0.08077889,0,0,0.04907924,80.052821,172.51348)"
       x1="198.19092"
       y1="548.47479"
       x2="339.00632"
       y2="564.01202" />
    <linearGradient
       y2="633.03998"
       x2="585.08002"
       gradientTransform="matrix(0.31234,0,0,0.18977,-754.44,492.38)"
       y1="586.87"
       gradientUnits="userSpaceOnUse"
       x1="160.36"
       id="linearGradient2424-2">
      <stop
         offset="0"
         id="stop2215-3" />
      <stop
         offset="0.17558429"
         id="stop2223-2"
         style="stop-color:#808080;stop-opacity:1" />
      <stop
         offset="1"
         id="stop2217-6" />
    </linearGradient>
    <linearGradient
       inkscape:collect="always"
       xlink:href="#linearGradient4328"
       id="linearGradient4330"
       x1="118.03812"
       y1="189.45396"
       x2="103.17437"
       y2="185.99138"
       gradientUnits="userSpaceOnUse" />
    <linearGradient
       inkscape:collect="always"
       xlink:href="#linearGradient4338"
       id="linearGradient4332"
       x1="122.1808"
       y1="196.26933"
       x2="104.52077"
       y2="183.19127"
       gradientUnits="userSpaceOnUse" />
    <linearGradient
       inkscape:collect="always"
       xlink:href="#linearGradient4344"
       id="linearGradient4346"
       x1="121.82849"
       y1="208.83736"
       x2="87.173889"
       y2="208.78923"
       gradientUnits="userSpaceOnUse" />
  </defs>
  <sodipodi:namedview
     id="base"
     pagecolor="#ffffff"
     bordercolor="#666666"
     borderopacity="1.0"
     inkscape:pageopacity="0.0"
     inkscape:pageshadow="2"
     inkscape:zoom="0.98994949"
     inkscape:cx="295.54055"
     inkscape:cy="206.9053"
     inkscape:document-units="mm"
     inkscape:current-layer="layer1"
     showgrid="false"
     units="px"
     inkscape:snap-global="false"
     inkscape:window-width="1920"
     inkscape:window-height="1025"
     inkscape:window-x="1920"
     inkscape:window-y="0"
     inkscape:window-maximized="1" />
  <metadata
     id="metadata3516">
    <rdf:RDF>
      <cc:Work
         rdf:about="">
        <dc:format>image/svg+xml</dc:format>
        <dc:type
           rdf:resource="http://purl.org/dc/dcmitype/StillImage" />
        <dc:title></dc:title>
      </cc:Work>
    </rdf:RDF>
  </metadata>
  <g
     inkscape:label="Capa 1"
     inkscape:groupmode="layer"
     id="layer1"
     transform="translate(0,-229.26665)">
    <g
       inkscape:label="Capa 1"
       id="layer1-6"
       transform="matrix(0.41105339,0,0,0.41105339,186.11222,-213.73508)" />
    <g
       id="g4360"
       transform="matrix(1.0761613,0,0,1.0761613,-84.552922,59.010647)">
      <path
         style="fill:url(#linearGradient4330);fill-opacity:1;fill-rule:evenodd;stroke:#000000;stroke-width:0.5172497"
         d="m 94.127176,206.17092 c 0,0 9.077734,-30.17376 17.674434,-38.88425 3.57936,-3.62591 7.98891,-2.35866 9.22773,-1.43536 3.58713,2.66643 4.9087,6.50959 6.85097,9.75791 -5.69233,-1.37588 -3.78368,-4.03713 -10.05016,-3.48626 l 3.72161,34.19797 z"
         id="path2183"
         inkscape:connector-curvature="0" />
      <path
         style="fill:url(#linearGradient6286);fill-rule:evenodd;stroke-width:0.52766269"
         d="m 93.785795,207.71743 2.728492,-9.18887 c 4.060413,-1.46385 12.799343,-1.38364 24.202113,1.50258 l 1.11209,8.80622 z"
         id="path2185"
         inkscape:connector-curvature="0" />
      <path
         d="m 111.51194,205.68985 0.0853,-7.95014 0.80432,-0.3517 c 2.73626,0.0465 4.9656,0.46815 6.68546,1.25949 l 0.97243,7.6501 -0.97243,0.41902 z m 2.49832,-6.9337 0.29483,4.87247 3.50178,0.52756 -0.27673,-1.60086 -2.83711,-1.30607 2.51642,-0.49653 -0.22242,-1.50517 c -0.99312,-0.45004 -1.98365,-0.53795 -2.97677,-0.4914 z"
         id="path2187"
         inkscape:connector-curvature="0"
         style="fill:#ffc832;fill-rule:evenodd;stroke:#000000;stroke-width:0.25862485" />
      <path
         d="m 111.60246,197.76302 0.86639,-0.36982 0.16811,7.89061 -1.09141,0.41637 z"
         id="path2201"
         inkscape:connector-curvature="0"
         style="fill:#f5a01e;fill-rule:evenodd;stroke:#000000;stroke-width:0.25862485" />
      <path
         d="m 113.97405,198.30099 0.013,0.45773 c 0.82502,-0.0698 1.7871,-0.0206 3.00523,0.46298 l 0.20431,1.50509 0.72157,-0.18108 -0.3207,-1.62932 c -1.37588,-0.62585 -2.50865,-0.69049 -3.62333,-0.6155 z"
         id="path2203"
         inkscape:connector-curvature="0"
         style="fill:#bc9500;fill-rule:evenodd;stroke:#000000;stroke-width:0.25862485" />
      <path
         d="m 114.81458,201.25963 2.70263,1.15085 0.33622,1.78449 0.71897,0.13701 -0.48621,-2.45955 z"
         id="path2205"
         inkscape:connector-curvature="0"
         style="fill:#bc9500;fill-rule:evenodd;stroke:#000000;stroke-width:0.25862485" />
      <path
         d="m 93.780624,210.77962 c 8.025126,0.81203 17.795976,-0.49142 30.491876,0.35427 3.49402,0.23282 7.9372,0.26636 11.38725,-2.36382 0.61552,-0.46809 1.62416,-1.82075 -1.04743,-2.24488 -0.74484,-0.26896 -0.74226,1.36559 -7.55961,0.49658 -8.84756,-1.12762 -17.73908,-4.19746 -25.36593,-4.82078 -7.629429,-0.62328 -14.05884,-0.65948 -17.115787,2.83713 -2.72332,3.11126 1.184504,4.92938 9.209631,5.7415 z"
         id="path1308"
         inkscape:connector-curvature="0"
         style="fill:url(#linearGradient4332);fill-opacity:1;fill-rule:evenodd;stroke:#000000;stroke-width:0.5172497" />
      <path
         style="fill:url(#linearGradient4346);fill-opacity:1;fill-rule:evenodd;stroke:#000000;stroke-width:0.5172497"
         d="m 93.392686,203.54068 c -2.500904,0.0879 -5.084562,0.16293 -7.438049,1.23625 -0.85605,0.36203 -1.510373,1.15606 -1.854338,2.14142 -0.514662,1.11468 -0.413805,2.61726 0.403456,3.50437 1.427607,1.62413 3.43971,2.1957 5.306978,2.74137 6.129408,1.63711 12.470887,1.14312 18.708917,0.96213 5.43889,-0.20172 10.8907,-0.16293 16.31664,0.36463 6.7915,-0.28707 9.34412,-1.74316 11.01484,-5.83196 -4.42507,1.606 -4.9837,2.71815 -13.12521,1.1224 -6.62597,-1.66811 -13.01142,-4.61389 -19.75119,-5.63803 -3.17332,-0.40082 -6.382857,-0.64654 -9.582044,-0.60258 z"
         id="path2237"
         inkscape:connector-curvature="0" />
      <path
         d="m 117.87928,172.28849 c -0.32068,-0.8871 -0.69828,-1.78452 -0.34914,-2.26557 0.4526,-0.62328 1.54141,-0.87931 1.04485,0.77071"
         id="path5447"
         inkscape:connector-curvature="0"
         style="fill:none;stroke:#000000;stroke-width:0.5172497" />
      <path
         transform="matrix(0.53636529,0.19305528,-0.19305528,0.53636529,112.77893,191.63195)"
         inkscape:transform-center-y="-0.24155212"
         inkscape:transform-center-x="-1.5206213"
         d="m -4.875,-0.49999992 -5.206539,-2.53824218 -4.775735,3.27766345 0.805103,-5.73607275 -4.593027,-3.5291402 5.70412,-1.0068454 1.937089,-5.458792 2.7202369,5.113807 5.790213,0.155422 -4.0229207,4.1673524 z"
         inkscape:randomized="0"
         inkscape:rounded="0"
         inkscape:flatsided="false"
         sodipodi:arg2="1.4968579"
         sodipodi:arg1="0.8685394"
         sodipodi:r2="3.9726119"
         sodipodi:r1="8.5146933"
         sodipodi:cy="-7"
         sodipodi:cx="-10.375"
         sodipodi:sides="5"
         id="path3451-6-8"
         style="fill:#ffaaff;fill-opacity:1;stroke:#ffdbff;stroke-opacity:1"
         sodipodi:type="star" />
      <path
         sodipodi:type="star"
         style="fill:#ffaaff;fill-opacity:1;stroke:#ffdbff;stroke-opacity:1"
         id="path4302"
         sodipodi:sides="5"
         sodipodi:cx="-10.375"
         sodipodi:cy="-7"
         sodipodi:r1="8.5146933"
         sodipodi:r2="3.9726119"
         sodipodi:arg1="0.8685394"
         sodipodi:arg2="1.4968579"
         inkscape:flatsided="false"
         inkscape:rounded="0"
         inkscape:randomized="0"
         d="m -4.875,-0.49999992 -5.206539,-2.53824218 -4.775735,3.27766345 0.805103,-5.73607275 -4.593027,-3.5291402 5.70412,-1.0068454 1.937089,-5.458792 2.7202369,5.113807 5.790213,0.155422 -4.0229207,4.1673524 z"
         inkscape:transform-center-x="-0.2015234"
         inkscape:transform-center-y="-0.37900938"
         transform="matrix(0.28035346,-0.07968315,0.07968315,0.28035346,116.58748,176.86695)" />
      <path
         transform="matrix(0.16345157,0.00297209,-0.00297209,0.16345157,117.10437,195.06965)"
         inkscape:transform-center-y="-0.26127723"
         inkscape:transform-center-x="-0.26332598"
         d="m -4.875,-0.49999992 -5.206539,-2.53824218 -4.775735,3.27766345 0.805103,-5.73607275 -4.593027,-3.5291402 5.70412,-1.0068454 1.937089,-5.458792 2.7202369,5.113807 5.790213,0.155422 -4.0229207,4.1673524 z"
         inkscape:randomized="0"
         inkscape:rounded="0"
         inkscape:flatsided="false"
         sodipodi:arg2="1.4968579"
         sodipodi:arg1="0.8685394"
         sodipodi:r2="3.9726119"
         sodipodi:r1="8.5146933"
         sodipodi:cy="-7"
         sodipodi:cx="-10.375"
         sodipodi:sides="5"
         id="path4304"
         style="fill:#ffaaff;fill-opacity:1;stroke:#ffdbff;stroke-opacity:1"
         sodipodi:type="star" />
    </g>
  </g>
</svg>
